<svg xmlns="http://www.w3.org/2000/svg" xmlns:xlink="http://www.w3.org/1999/xlink" fill="none" version="1.1" width="403" height="403" viewBox="0 0 403 403"><defs><filter id="master_svg0_3_2338" filterUnits="objectBoundingBox" color-interpolation-filters="sRGB" x="0" y="0" width="34.91903305053711" height="34.91903305053711"><feFlood flood-opacity="0" result="BackgroundImageFix"/><feBlend mode="normal" in="SourceGraphic" in2="BackgroundImageFix" result="shape"/><feColorMatrix in="SourceAlpha" type="matrix" result="hardAlpha" values="0 0 0 0 0 0 0 0 0 0 0 0 0 0 0 0 0 0 127 0"/><feOffset dy="-5" dx="-6"/><feGaussianBlur stdDeviation="0"/><feComposite in2="hardAlpha" operator="arithmetic" k2="-1" k3="1"/><feColorMatrix type="matrix" values="0 0 0 0 1 0 0 0 0 0.9450980424880981 0 0 0 0 0.8666666746139526 0 0 0 1 0"/><feBlend mode="normal" in2="shape" result="effect1_innerShadow"/></filter><filter id="master_svg1_3_2337" filterUnits="objectBoundingBox" color-interpolation-filters="sRGB" x="0" y="0" width="9.159090995788574" height="9.159090995788574"><feFlood flood-opacity="0" result="BackgroundImageFix"/><feBlend mode="normal" in="SourceGraphic" in2="BackgroundImageFix" result="shape"/><feColorMatrix in="SourceAlpha" type="matrix" result="hardAlpha" values="0 0 0 0 0 0 0 0 0 0 0 0 0 0 0 0 0 0 127 0"/><feOffset dy="-2" dx="-3"/><feGaussianBlur stdDeviation="0"/><feComposite in2="hardAlpha" operator="arithmetic" k2="-1" k3="1"/><feColorMatrix type="matrix" values="0 0 0 0 0.8823529481887817 0 0 0 0 0.6117647290229797 0 0 0 0 0.3686274588108063 0 0 0 1 0"/><feBlend mode="normal" in2="shape" result="effect1_innerShadow"/></filter><filter id="master_svg2_3_2339" filterUnits="objectBoundingBox" color-interpolation-filters="sRGB" x="0" y="0" width="4.0071024894714355" height="4.0071024894714355"><feFlood flood-opacity="0" result="BackgroundImageFix"/><feBlend mode="normal" in="SourceGraphic" in2="BackgroundImageFix" result="shape"/><feColorMatrix in="SourceAlpha" type="matrix" result="hardAlpha" values="0 0 0 0 0 0 0 0 0 0 0 0 0 0 0 0 0 0 127 0"/><feOffset dy="2" dx="5"/><feGaussianBlur stdDeviation="0"/><feComposite in2="hardAlpha" operator="arithmetic" k2="-1" k3="1"/><feColorMatrix type="matrix" values="0 0 0 0 0 0 0 0 0 0 0 0 0 0 0 0 0 0 0.12061254680156708 0"/><feBlend mode="normal" in2="shape" result="effect1_innerShadow"/></filter><filter id="master_svg3_3_2335" filterUnits="objectBoundingBox" color-interpolation-filters="sRGB" x="0" y="0" width="22.587644577026367" height="22.587644577026367"><feFlood flood-opacity="0" result="BackgroundImageFix"/><feBlend mode="normal" in="SourceGraphic" in2="BackgroundImageFix" result="shape"/><feColorMatrix in="SourceAlpha" type="matrix" result="hardAlpha" values="0 0 0 0 0 0 0 0 0 0 0 0 0 0 0 0 0 0 127 0"/><feOffset dy="-5" dx="-6"/><feGaussianBlur stdDeviation="0"/><feComposite in2="hardAlpha" operator="arithmetic" k2="-1" k3="1"/><feColorMatrix type="matrix" values="0 0 0 0 1 0 0 0 0 0.9450980424880981 0 0 0 0 0.8666666746139526 0 0 0 1 0"/><feBlend mode="normal" in2="shape" result="effect1_innerShadow"/></filter><filter id="master_svg4_3_2327" filterUnits="objectBoundingBox" color-interpolation-filters="sRGB" x="0" y="0" width="166.58096313476562" height="166.58096313476562"><feFlood flood-opacity="0" result="BackgroundImageFix"/><feBlend mode="normal" in="SourceGraphic" in2="BackgroundImageFix" result="shape"/><feColorMatrix in="SourceAlpha" type="matrix" result="hardAlpha" values="0 0 0 0 0 0 0 0 0 0 0 0 0 0 0 0 0 0 127 0"/><feOffset dy="-9" dx="-16"/><feGaussianBlur stdDeviation="0"/><feComposite in2="hardAlpha" operator="arithmetic" k2="-1" k3="1"/><feColorMatrix type="matrix" values="0 0 0 0 1 0 0 0 0 0.9450980424880981 0 0 0 0 0.8666666746139526 0 0 0 1 0"/><feBlend mode="normal" in2="shape" result="effect1_innerShadow"/></filter><filter id="master_svg5_3_2326" filterUnits="objectBoundingBox" color-interpolation-filters="sRGB" x="0" y="0" width="14.883522987365723" height="14.883522987365723"><feFlood flood-opacity="0" result="BackgroundImageFix"/><feBlend mode="normal" in="SourceGraphic" in2="BackgroundImageFix" result="shape"/><feColorMatrix in="SourceAlpha" type="matrix" result="hardAlpha" values="0 0 0 0 0 0 0 0 0 0 0 0 0 0 0 0 0 0 127 0"/><feOffset dy="-3" dx="-7"/><feGaussianBlur stdDeviation="0"/><feComposite in2="hardAlpha" operator="arithmetic" k2="-1" k3="1"/><feColorMatrix type="matrix" values="0 0 0 0 0.8823529481887817 0 0 0 0 0.6117647290229797 0 0 0 0 0.3686274588108063 0 0 0 1 0"/><feBlend mode="normal" in2="shape" result="effect1_innerShadow"/></filter><filter id="master_svg6_3_2325" filterUnits="objectBoundingBox" color-interpolation-filters="sRGB" x="0" y="0" width="25.75994300842285" height="25.75994300842285"><feFlood flood-opacity="0" result="BackgroundImageFix"/><feBlend mode="normal" in="SourceGraphic" in2="BackgroundImageFix" result="shape"/><feColorMatrix in="SourceAlpha" type="matrix" result="hardAlpha" values="0 0 0 0 0 0 0 0 0 0 0 0 0 0 0 0 0 0 127 0"/><feOffset dy="-3" dx="-7"/><feGaussianBlur stdDeviation="0"/><feComposite in2="hardAlpha" operator="arithmetic" k2="-1" k3="1"/><feColorMatrix type="matrix" values="0 0 0 0 0.8823529481887817 0 0 0 0 0.6117647290229797 0 0 0 0 0.3686274588108063 0 0 0 1 0"/><feBlend mode="normal" in2="shape" result="effect1_innerShadow"/></filter><filter id="master_svg7_3_2316" filterUnits="objectBoundingBox" color-interpolation-filters="sRGB" x="0" y="0" width="22.897727966308594" height="22.897727966308594"><feFlood flood-opacity="0" result="BackgroundImageFix"/><feBlend mode="normal" in="SourceGraphic" in2="BackgroundImageFix" result="shape"/><feColorMatrix in="SourceAlpha" type="matrix" result="hardAlpha" values="0 0 0 0 0 0 0 0 0 0 0 0 0 0 0 0 0 0 127 0"/><feOffset dy="-3" dx="-7"/><feGaussianBlur stdDeviation="0"/><feComposite in2="hardAlpha" operator="arithmetic" k2="-1" k3="1"/><feColorMatrix type="matrix" values="0 0 0 0 0.8823529481887817 0 0 0 0 0.6117647290229797 0 0 0 0 0.3686274588108063 0 0 0 1 0"/><feBlend mode="normal" in2="shape" result="effect1_innerShadow"/></filter><filter id="master_svg8_3_2318" filterUnits="objectBoundingBox" color-interpolation-filters="sRGB" x="0" y="0" width="74.99005889892578" height="72.12783813476562"><feFlood flood-opacity="0" result="BackgroundImageFix"/><feBlend mode="normal" in="SourceGraphic" in2="BackgroundImageFix" result="shape"/><feColorMatrix in="SourceAlpha" type="matrix" result="hardAlpha" values="0 0 0 0 0 0 0 0 0 0 0 0 0 0 0 0 0 0 127 0"/><feOffset dy="-10" dx="-11"/><feGaussianBlur stdDeviation="0"/><feComposite in2="hardAlpha" operator="arithmetic" k2="-1" k3="1"/><feColorMatrix type="matrix" values="0 0 0 0 1 0 0 0 0 0.9450980424880981 0 0 0 0 0.8666666746139526 0 0 0 1 0"/><feBlend mode="normal" in2="shape" result="effect1_innerShadow"/></filter><filter id="master_svg9_3_2317" filterUnits="objectBoundingBox" color-interpolation-filters="sRGB" x="0" y="0" width="0" height="111.62641906738281"><feFlood flood-opacity="0" result="BackgroundImageFix"/><feBlend mode="normal" in="SourceGraphic" in2="BackgroundImageFix" result="shape"/><feColorMatrix in="SourceAlpha" type="matrix" result="hardAlpha" values="0 0 0 0 0 0 0 0 0 0 0 0 0 0 0 0 0 0 127 0"/><feOffset dy="-10" dx="-11"/><feGaussianBlur stdDeviation="0"/><feComposite in2="hardAlpha" operator="arithmetic" k2="-1" k3="1"/><feColorMatrix type="matrix" values="0 0 0 0 0 0 0 0 0 0 0 0 0 0 0 0 0 0 0.10000000149011612 0"/><feBlend mode="normal" in2="shape" result="effect1_innerShadow"/></filter></defs><g><g><ellipse cx="201.5" cy="201.5" rx="201.5" ry="201.5" fill="#FFF1DD" fill-opacity="1"/></g><g><g><path d="M291.8160694580078,291.663334369655L68.69318945800781,291.663334369655Q68.59493945800781,291.663334369655,68.49715945800781,291.672964918125Q68.39937945800781,291.682595478125,68.3030094580078,291.701763778125Q68.20664945800782,291.720932178125,68.11261945800781,291.749453678125Q68.01859945800781,291.777975078125,67.9278294580078,291.815575078125Q67.83704945800781,291.853175078125,67.7503994580078,291.899492078125Q67.66374545800781,291.945808078125,67.58205045800781,292.000395078125Q67.50035645800781,292.054982078125,67.42440445800781,292.117313078125Q67.34845345800781,292.179645078125,67.27897745800782,292.249121078125Q67.20950245800782,292.318596078125,67.1471704580078,292.394548078125Q67.0848394580078,292.470499078125,67.03025245800781,292.552194078125Q66.97566545800781,292.633889078125,66.9293494580078,292.720540078125Q66.88303245800782,292.807190078125,66.8454324580078,292.897970078125Q66.80783245800781,292.988740078125,66.77931085800782,293.082760078125Q66.75078925800781,293.176790078125,66.73162095800781,293.273150078125Q66.7124526580078,293.369520078125,66.70282206800782,293.467300078125Q66.69319152800782,293.565080078125,66.69319152800782,293.663330078125Q66.69319152800782,293.761590078125,66.70282206800782,293.859370078125Q66.7124526580078,293.957150078125,66.73162095800781,294.053510078125Q66.75078925800781,294.149880078125,66.77931085800782,294.243900078125Q66.80783245800781,294.337930078125,66.8454324580078,294.428700078125Q66.88303245800782,294.519480078125,66.9293494580078,294.606130078125Q66.97566545800781,294.692780078125,67.03025245800781,294.774470078125Q67.0848394580078,294.856170078125,67.1471704580078,294.932120078125Q67.20950245800782,295.008070078125,67.27897745800782,295.077550078125Q67.34845345800781,295.147020078125,67.42440445800781,295.209360078125Q67.50035645800781,295.271690078125,67.58205045800781,295.326270078125Q67.66374545800781,295.380860078125,67.7503994580078,295.427180078125Q67.83704945800781,295.473490078125,67.9278294580078,295.511090078125Q68.01859945800781,295.548690078125,68.11261945800781,295.577220078125Q68.20664945800782,295.605740078125,68.3030094580078,295.624910078125Q68.39937945800781,295.644070078125,68.49715945800781,295.653700078125Q68.59493945800781,295.663330078125,68.69318945800781,295.663330078125L291.8160694580078,295.663330078125Q291.9140694580078,295.663330078125,292.0120694580078,295.653700078125Q292.11006945800784,295.644070078125,292.20606945800785,295.624900078125Q292.30206945800785,295.605740078125,292.3960694580078,295.577210078125Q292.49006945800784,295.548690078125,292.58106945800785,295.511090078125Q292.67206945800785,295.473490078125,292.75906945800784,295.427180078125Q292.8450694580078,295.380860078125,292.92706945800785,295.326270078125Q293.00906945800784,295.271690078125,293.0850694580078,295.209350078125Q293.1610694580078,295.147020078125,293.23006945800785,295.077550078125Q293.2990694580078,295.008070078125,293.3620694580078,294.932120078125Q293.4240694580078,294.856170078125,293.4790694580078,294.774470078125Q293.53306945800784,294.692780078125,293.5800694580078,294.606130078125Q293.6260694580078,294.519480078125,293.6640694580078,294.428700078125Q293.70106945800785,294.337930078125,293.73006945800785,294.243900078125Q293.7580694580078,294.149880078125,293.7770694580078,294.053510078125Q293.79706945800785,293.957150078125,293.8060694580078,293.859370078125Q293.8160694580078,293.761590078125,293.8160694580078,293.663330078125Q293.8160694580078,293.565080078125,293.8060694580078,293.467300078125Q293.79706945800785,293.369520078125,293.7770694580078,293.273150078125Q293.7580694580078,293.176790078125,293.73006945800785,293.082760078125Q293.70106945800785,292.988740078125,293.6640694580078,292.897970078125Q293.6260694580078,292.807190078125,293.5800694580078,292.720540078125Q293.53306945800784,292.633889078125,293.4790694580078,292.552194078125Q293.4240694580078,292.470499078125,293.3620694580078,292.394548078125Q293.2990694580078,292.318596078125,293.23006945800785,292.249121078125Q293.1610694580078,292.179645078125,293.0850694580078,292.117313078125Q293.00906945800784,292.054982078125,292.92706945800785,292.000395078125Q292.8450694580078,291.945808078125,292.75906945800784,291.899492078125Q292.67206945800785,291.853175078125,292.58106945800785,291.815575078125Q292.49006945800784,291.777975078125,292.3960694580078,291.749453678125Q292.30206945800785,291.720932178125,292.20606945800785,291.701763778125Q292.11006945800784,291.682595478125,292.0120694580078,291.672964918125Q291.9140694580078,291.663334369655,291.8160694580078,291.663334369655ZM333.1620694580078,291.663334369655L300.6190694580078,291.663334369655Q300.5200694580078,291.663334369655,300.42306945800783,291.672964918125Q300.3250694580078,291.682595478125,300.2280694580078,291.701763778125Q300.1320694580078,291.720932178125,300.03806945800784,291.749453678125Q299.9440694580078,291.777975078125,299.8530694580078,291.815575078125Q299.7620694580078,291.853175078125,299.6760694580078,291.899492078125Q299.58906945800777,291.945808078125,299.5070694580078,292.000395078125Q299.4260694580078,292.054982078125,299.35006945800785,292.117313078125Q299.27406945800783,292.179645078125,299.2040694580078,292.249121078125Q299.1350694580078,292.318596078125,299.0730694580078,292.394548078125Q299.0100694580078,292.470499078125,298.95606945800785,292.552194078125Q298.9010694580078,292.633889078125,298.85506945800785,292.720540078125Q298.8080694580078,292.807190078125,298.7710694580078,292.897970078125Q298.7330694580078,292.988740078125,298.7050694580078,293.082760078125Q298.6760694580078,293.176790078125,298.6570694580078,293.273150078125Q298.6380694580078,293.369520078125,298.6280694580078,293.467300078125Q298.6190694580078,293.565080078125,298.6190694580078,293.663330078125Q298.6190694580078,293.761590078125,298.6280694580078,293.859370078125Q298.6380694580078,293.957150078125,298.6570694580078,294.053510078125Q298.6760694580078,294.149880078125,298.7050694580078,294.243900078125Q298.7330694580078,294.337930078125,298.7710694580078,294.428700078125Q298.8080694580078,294.519480078125,298.85506945800785,294.606130078125Q298.9010694580078,294.692780078125,298.95606945800785,294.774470078125Q299.0100694580078,294.856170078125,299.07206945800783,294.932120078125Q299.1350694580078,295.008070078125,299.2040694580078,295.077550078125Q299.27406945800783,295.147020078125,299.35006945800785,295.209360078125Q299.4260694580078,295.271690078125,299.5070694580078,295.326270078125Q299.58906945800777,295.380860078125,299.6760694580078,295.427180078125Q299.7620694580078,295.473490078125,299.8530694580078,295.511090078125Q299.9440694580078,295.548690078125,300.03806945800784,295.577220078125Q300.1320694580078,295.605740078125,300.2280694580078,295.624910078125Q300.3250694580078,295.644070078125,300.42206945800785,295.653700078125Q300.5200694580078,295.663330078125,300.6190694580078,295.663330078125L333.1620694580078,295.663330078125Q333.2600694580078,295.663330078125,333.35806945800783,295.653700078125Q333.4560694580078,295.644070078125,333.5520694580078,295.624900078125Q333.6480694580078,295.605740078125,333.7420694580078,295.577210078125Q333.8360694580078,295.548690078125,333.9270694580078,295.511090078125Q334.0180694580078,295.473490078125,334.1050694580078,295.427180078125Q334.1910694580078,295.380860078125,334.2730694580078,295.326270078125Q334.3550694580078,295.271690078125,334.4310694580078,295.209350078125Q334.50706945800783,295.147020078125,334.5760694580078,295.077550078125Q334.6460694580078,295.008070078125,334.7080694580078,294.932120078125Q334.7700694580078,294.856170078125,334.8250694580078,294.774470078125Q334.8790694580078,294.692780078125,334.9260694580078,294.606130078125Q334.9720694580078,294.519480078125,335.0100694580078,294.428700078125Q335.0470694580078,294.337930078125,335.0760694580078,294.243900078125Q335.1040694580078,294.149880078125,335.1230694580078,294.053510078125Q335.1430694580078,293.957150078125,335.1520694580078,293.859370078125Q335.1620694580078,293.761590078125,335.1620694580078,293.663330078125Q335.1620694580078,293.565080078125,335.1520694580078,293.467300078125Q335.1430694580078,293.369520078125,335.1230694580078,293.273150078125Q335.1040694580078,293.176790078125,335.0760694580078,293.082760078125Q335.0470694580078,292.988740078125,335.0100694580078,292.897970078125Q334.9720694580078,292.807190078125,334.9260694580078,292.720540078125Q334.8790694580078,292.633889078125,334.8250694580078,292.552194078125Q334.7700694580078,292.470499078125,334.7080694580078,292.394548078125Q334.6460694580078,292.318596078125,334.5760694580078,292.249121078125Q334.50706945800783,292.179645078125,334.4310694580078,292.117313078125Q334.3550694580078,292.054982078125,334.2730694580078,292.000395078125Q334.1910694580078,291.945808078125,334.1050694580078,291.899492078125Q334.0180694580078,291.853175078125,333.9270694580078,291.815575078125Q333.8360694580078,291.777975078125,333.7420694580078,291.749453678125Q333.6480694580078,291.720932178125,333.5520694580078,291.701763778125Q333.4560694580078,291.682595478125,333.35806945800783,291.672964918125Q333.2600694580078,291.663334369655,333.1620694580078,291.663334369655Z" fill-rule="evenodd" fill="#7B4F27" fill-opacity="1"/></g><g transform="matrix(-1,0,0,1,599.3411254882812,0)"><path d="M301.6706827441406,298.8279399871782L443.9795627441406,298.8279399871782Q444.07756274414066,298.8279399871782,444.1755627441406,298.8375705356482Q444.27356274414063,298.8472010956482,444.36956274414064,298.8663693956482Q444.4665627441406,298.8855377956482,444.5605627441406,298.9140592956482Q444.65456274414066,298.9425806956482,444.7455627441406,298.9801806956482Q444.8355627441406,299.0177806956482,444.92256274414063,299.0640976956482Q445.0095627441406,299.1104136956482,445.0905627441406,299.1650006956482Q445.17256274414063,299.2195876956482,445.2485627441406,299.2819186956482Q445.3245627441406,299.3442506956482,445.39356274414064,299.41372669564817Q445.46356274414063,299.4832016956482,445.52556274414064,299.5591536956482Q445.58756274414066,299.6351046956482,445.6425627441406,299.7167996956482Q445.6975627441406,299.7984946956482,445.7435627441406,299.8851456956482Q445.78956274414065,299.9717956956482,445.82756274414066,300.0625756956482Q445.8655627441406,300.15334569564817,445.89356274414064,300.24736569564817Q445.92256274414063,300.3413956956482,445.9415627441406,300.4377556956482Q445.9605627441406,300.5341256956482,445.97056274414064,300.6319056956482Q445.9795627441406,300.7296856956482,445.9795627441406,300.8279356956482Q445.9795627441406,300.9261956956482,445.97056274414064,301.0239756956482Q445.9605627441406,301.1217556956482,445.9415627441406,301.2181156956482Q445.92256274414063,301.3144856956482,445.89356274414064,301.4085056956482Q445.8655627441406,301.5025356956482,445.82756274414066,301.5933056956482Q445.78956274414065,301.6840856956482,445.7435627441406,301.77073569564817Q445.6975627441406,301.8573856956482,445.6425627441406,301.93907569564817Q445.58756274414066,302.0207756956482,445.52556274414064,302.0967256956482Q445.46356274414063,302.1726756956482,445.39356274414064,302.2421556956482Q445.3245627441406,302.3116256956482,445.2485627441406,302.37396569564817Q445.17256274414063,302.4362956956482,445.0905627441406,302.4908756956482Q445.0095627441406,302.5454656956482,444.92256274414063,302.5917856956482Q444.8355627441406,302.6380956956482,444.7455627441406,302.6756956956482Q444.65456274414066,302.7132956956482,444.5605627441406,302.7418256956482Q444.4665627441406,302.7703456956482,444.36956274414064,302.7895156956482Q444.27356274414063,302.8086756956482,444.1755627441406,302.8183056956482Q444.07756274414066,302.8279356956482,443.9795627441406,302.8279356956482L301.6706827441406,302.8279356956482Q301.5724327441406,302.8279356956482,301.4746527441406,302.8183056956482Q301.3768727441406,302.8086756956482,301.2805027441406,302.7895056956482Q301.1841427441406,302.7703456956482,301.09011274414064,302.7418156956482Q300.99609274414064,302.7132956956482,300.9053227441406,302.6756956956482Q300.8145427441406,302.6380956956482,300.7278927441406,302.5917856956482Q300.64123874414065,302.5454656956482,300.5595437441406,302.4908756956482Q300.4778497441406,302.4362956956482,300.4018977441406,302.3739556956482Q300.32594674414065,302.3116256956482,300.25647074414064,302.2421556956482Q300.18699574414063,302.1726756956482,300.1246637441406,302.0967256956482Q300.06233274414063,302.0207756956482,300.0077457441406,301.93907569564817Q299.95315874414064,301.8573856956482,299.90684274414065,301.77073569564817Q299.8605257441406,301.6840856956482,299.8229257441406,301.5933056956482Q299.7853257441406,301.5025356956482,299.75680414414063,301.4085056956482Q299.7282825441406,301.3144856956482,299.7091142441406,301.2181156956482Q299.6899459441406,301.1217556956482,299.68031535414065,301.0239756956482Q299.6706848141406,300.9261956956482,299.6706848141406,300.8279356956482Q299.6706848141406,300.7296856956482,299.68031535414065,300.6319056956482Q299.6899459441406,300.5341256956482,299.7091142441406,300.4377556956482Q299.7282825441406,300.3413956956482,299.75680414414063,300.24736569564817Q299.7853257441406,300.15334569564817,299.8229257441406,300.0625756956482Q299.8605257441406,299.9717956956482,299.90684274414065,299.8851456956482Q299.95315874414064,299.7984946956482,300.0077457441406,299.7167996956482Q300.06233274414063,299.6351046956482,300.1246637441406,299.5591536956482Q300.18699574414063,299.4832016956482,300.25647074414064,299.41372669564817Q300.32594674414065,299.3442506956482,300.4018977441406,299.2819186956482Q300.4778497441406,299.2195876956482,300.5595437441406,299.1650006956482Q300.64123874414065,299.1104136956482,300.7278927441406,299.0640976956482Q300.8145427441406,299.0177806956482,300.9053227441406,298.9801806956482Q300.99609274414064,298.9425806956482,301.09011274414064,298.9140592956482Q301.1841427441406,298.8855377956482,301.2805027441406,298.8663693956482Q301.3768727441406,298.8472010956482,301.4746527441406,298.8375705356482Q301.5724327441406,298.8279399871782,301.6706827441406,298.8279399871782ZM448.7355627441406,298.8279399871782L454.85756274414064,298.8279399871782Q454.9555627441406,298.8279399871782,455.05356274414066,298.8375705356482Q455.1515627441406,298.8472010956482,455.2475627441406,298.8663693956482Q455.3445627441406,298.8855377956482,455.43856274414065,298.9140592956482Q455.5325627441406,298.9425806956482,455.6235627441406,298.9801806956482Q455.71356274414063,299.0177806956482,455.8005627441406,299.0640976956482Q455.8875627441406,299.1104136956482,455.9685627441406,299.1650006956482Q456.0505627441406,299.2195876956482,456.12656274414064,299.2819186956482Q456.20256274414066,299.3442506956482,456.2715627441406,299.41372669564817Q456.3415627441406,299.4832016956482,456.40356274414063,299.5591536956482Q456.4665627441406,299.6351046956482,456.52056274414065,299.7167996956482Q456.5755627441406,299.7984946956482,456.62156274414065,299.8851456956482Q456.66756274414064,299.9717956956482,456.7055627441406,300.0625756956482Q456.7435627441406,300.15334569564817,456.7715627441406,300.24736569564817Q456.8005627441406,300.3413956956482,456.8195627441406,300.4377556956482Q456.83856274414063,300.5341256956482,456.8485627441406,300.6319056956482Q456.85756274414064,300.7296856956482,456.85756274414064,300.8279356956482Q456.85756274414064,300.9261956956482,456.8485627441406,301.0239756956482Q456.83856274414063,301.1217556956482,456.8195627441406,301.2181156956482Q456.8005627441406,301.3144856956482,456.7715627441406,301.4085056956482Q456.7435627441406,301.5025356956482,456.7055627441406,301.5933056956482Q456.66756274414064,301.6840856956482,456.62156274414065,301.77073569564817Q456.5755627441406,301.8573856956482,456.52056274414065,301.93907569564817Q456.4665627441406,302.0207756956482,456.40356274414063,302.0967256956482Q456.3415627441406,302.1726756956482,456.2715627441406,302.2421556956482Q456.20256274414066,302.3116256956482,456.12656274414064,302.37396569564817Q456.0505627441406,302.4362956956482,455.9685627441406,302.4908756956482Q455.8875627441406,302.5454656956482,455.8005627441406,302.5917856956482Q455.71356274414063,302.6380956956482,455.6235627441406,302.6756956956482Q455.5325627441406,302.7132956956482,455.43856274414065,302.7418256956482Q455.3445627441406,302.7703456956482,455.2475627441406,302.7895156956482Q455.1515627441406,302.8086756956482,455.05356274414066,302.8183056956482Q454.9555627441406,302.8279356956482,454.85756274414064,302.8279356956482L448.7355627441406,302.8279356956482Q448.6375627441406,302.8279356956482,448.53956274414065,302.8183056956482Q448.4415627441406,302.8086756956482,448.34556274414064,302.7895056956482Q448.2485627441406,302.7703456956482,448.15456274414066,302.7418156956482Q448.0605627441406,302.7132956956482,447.97056274414064,302.6756956956482Q447.8795627441406,302.6380956956482,447.79256274414064,302.5917856956482Q447.7055627441406,302.5454656956482,447.62456274414063,302.4908756956482Q447.54256274414064,302.4362956956482,447.4665627441406,302.3739556956482Q447.39056274414065,302.3116256956482,447.32156274414064,302.2421556956482Q447.25156274414064,302.1726756956482,447.18956274414063,302.0967256956482Q447.1275627441406,302.0207756956482,447.0725627441406,301.93907569564817Q447.0175627441406,301.8573856956482,446.9715627441406,301.77073569564817Q446.9255627441406,301.6840856956482,446.8875627441406,301.5933056956482Q446.85056274414063,301.5025356956482,446.82156274414064,301.4085056956482Q446.7935627441406,301.3144856956482,446.77356274414063,301.2181156956482Q446.7545627441406,301.1217556956482,446.7455627441406,301.0239756956482Q446.7355627441406,300.9261956956482,446.7355627441406,300.8279356956482Q446.7355627441406,300.7296856956482,446.7455627441406,300.6319056956482Q446.7545627441406,300.5341256956482,446.77356274414063,300.4377556956482Q446.7935627441406,300.3413956956482,446.82156274414064,300.24736569564817Q446.85056274414063,300.15334569564817,446.8875627441406,300.0625756956482Q446.9255627441406,299.9717956956482,446.9715627441406,299.8851456956482Q447.0175627441406,299.7984946956482,447.0725627441406,299.7167996956482Q447.1275627441406,299.6351046956482,447.18956274414063,299.5591536956482Q447.25156274414064,299.4832016956482,447.32156274414064,299.41372669564817Q447.39056274414065,299.3442506956482,447.4665627441406,299.2819186956482Q447.54256274414064,299.2195876956482,447.62456274414063,299.1650006956482Q447.7055627441406,299.1104136956482,447.79256274414064,299.0640976956482Q447.8795627441406,299.0177806956482,447.97056274414064,298.9801806956482Q448.0605627441406,298.9425806956482,448.15456274414066,298.9140592956482Q448.2485627441406,298.8855377956482,448.34556274414064,298.8663693956482Q448.4415627441406,298.8472010956482,448.53956274414065,298.8375705356482Q448.6375627441406,298.8279399871782,448.7355627441406,298.8279399871782ZM489.4325627441406,299.2997416956482L465.6095627441406,299.2997416956482Q465.51156274414063,299.2997416956482,465.4135627441406,299.3093726956482Q465.3155627441406,299.3190026956482,465.2195627441406,299.3381706956482Q465.1225627441406,299.3573396956482,465.02856274414063,299.3858606956482Q464.93456274414064,299.4143826956482,464.8445627441406,299.4519826956482Q464.7535627441406,299.4895826956482,464.6665627441406,299.5358996956482Q464.5805627441406,299.5822156956482,464.4985627441406,299.6368026956482Q464.4165627441406,299.6913896956482,464.3405627441406,299.7537206956482Q464.2645627441406,299.8160526956482,464.1955627441406,299.8855256956482Q464.12556274414067,299.9550056956482,464.06356274414065,300.0309556956482Q464.00156274414064,300.1069056956482,463.94656274414064,300.1886056956482Q463.89156274414063,300.2702956956482,463.84556274414064,300.3569456956482Q463.79956274414064,300.4435956956482,463.76156274414063,300.5343756956482Q463.7245627441406,300.6251456956482,463.6955627441406,300.7191756956482Q463.66756274414064,300.8131956956482,463.6475627441406,300.9095656956482Q463.6285627441406,301.0059256956482,463.61956274414064,301.1037056956482Q463.6095627441406,301.2014856956482,463.6095627441406,301.2997456956482Q463.6095627441406,301.3979956956482,463.61956274414064,301.4957756956482Q463.6285627441406,301.5935556956482,463.6475627441406,301.6899256956482Q463.66756274414064,301.7862856956482,463.6955627441406,301.8803056956482Q463.7245627441406,301.97433569564816,463.76156274414063,302.0651056956482Q463.79956274414064,302.1558856956482,463.84556274414064,302.2425356956482Q463.89156274414063,302.3291856956482,463.94656274414064,302.4108856956482Q464.00156274414064,302.4925756956482,464.06356274414065,302.5685256956482Q464.12556274414067,302.64447569564817,464.1955627441406,302.71395569564817Q464.2645627441406,302.78343569564817,464.3405627441406,302.8457656956482Q464.4165627441406,302.90809569564817,464.4985627441406,302.9626756956482Q464.5805627441406,303.0172656956482,464.6665627441406,303.0635856956482Q464.7535627441406,303.1098956956482,464.8445627441406,303.1474956956482Q464.93456274414064,303.1850956956482,465.02856274414063,303.2136256956482Q465.1225627441406,303.2421456956482,465.2195627441406,303.2613156956482Q465.3155627441406,303.2804756956482,465.4135627441406,303.2901156956482Q465.51156274414063,303.2997456956482,465.6095627441406,303.2997456956482L489.4325627441406,303.2997456956482Q489.53056274414064,303.2997456956482,489.6285627441406,303.2901156956482Q489.72556274414063,303.2804756956482,489.8225627441406,303.2613156956482Q489.9185627441406,303.2421456956482,490.0125627441406,303.2136256956482Q490.10656274414066,303.1850956956482,490.1975627441406,303.1474956956482Q490.2885627441406,303.1098956956482,490.37456274414063,303.0635856956482Q490.4615627441406,303.0172656956482,490.5435627441406,302.9626756956482Q490.62456274414063,302.90809569564817,490.7005627441406,302.8457656956482Q490.7765627441406,302.78343569564817,490.8465627441406,302.71395569564817Q490.91556274414063,302.64447569564817,490.9785627441406,302.5685256956482Q491.04056274414063,302.4925756956482,491.0945627441406,302.4108856956482Q491.14956274414067,302.3291856956482,491.1955627441406,302.2425356956482Q491.2425627441406,302.1558856956482,491.27956274414066,302.0651056956482Q491.3175627441406,301.97433569564816,491.34556274414064,301.8803156956482Q491.37456274414063,301.7862856956482,491.39356274414064,301.6899256956482Q491.4125627441406,301.5935556956482,491.42256274414063,301.4957756956482Q491.4325627441406,301.3979956956482,491.4325627441406,301.2997456956482Q491.4325627441406,301.2014856956482,491.42256274414063,301.1037056956482Q491.4125627441406,301.0059256956482,491.39356274414064,300.9095656956482Q491.37456274414063,300.8131956956482,491.34556274414064,300.7191756956482Q491.3175627441406,300.6251456956482,491.27956274414066,300.5343756956482Q491.2425627441406,300.4435956956482,491.1955627441406,300.3569456956482Q491.14956274414067,300.2702956956482,491.0945627441406,300.1886056956482Q491.04056274414063,300.1069056956482,490.9785627441406,300.0309556956482Q490.91556274414063,299.9550056956482,490.8465627441406,299.8855256956482Q490.7765627441406,299.8160526956482,490.7005627441406,299.7537206956482Q490.62456274414063,299.6913896956482,490.5435627441406,299.6368026956482Q490.4615627441406,299.5822156956482,490.37456274414063,299.5358986956482Q490.2885627441406,299.4895826956482,490.1975627441406,299.4519826956482Q490.10656274414066,299.4143826956482,490.0125627441406,299.3858606956482Q489.9185627441406,299.3573396956482,489.8225627441406,299.3381706956482Q489.72556274414063,299.3190026956482,489.6285627441406,299.3093726956482Q489.53056274414064,299.2997416956482,489.4325627441406,299.2997416956482Z" fill-rule="evenodd" fill="#7B4F27" fill-opacity="1"/></g></g><g><g><g filter="url(#master_svg0_3_2338)"><ellipse cx="356.3458843231201" cy="196.63422966003418" rx="17.459516525268555" ry="17.459516525268555" fill="#FFFFFF" fill-opacity="1"/><ellipse cx="356.3458843231201" cy="196.63422966003418" rx="17.459516525268555" ry="17.459516525268555" fill-opacity="0" stroke-opacity="1" stroke="#7B4F27" fill="none" stroke-width="3" stroke-linecap="ROUND" stroke-linejoin="round"/></g><g filter="url(#master_svg1_3_2337)"><ellipse cx="361.21165227890015" cy="200.92755460739136" rx="4.579545497894287" ry="4.579545497894287" fill="#FBD59F" fill-opacity="1"/><ellipse cx="361.21165227890015" cy="200.92755460739136" rx="4.579545497894287" ry="4.579545497894287" fill-opacity="0" stroke-opacity="1" stroke="#7B4F27" fill="none" stroke-width="3" stroke-linecap="ROUND" stroke-linejoin="round"/></g><g filter="url(#master_svg2_3_2339)"><ellipse cx="354.628555059433" cy="186.33025288581848" rx="2.0035512447357178" ry="2.0035512447357178" fill="#E0E0E0" fill-opacity="1"/><ellipse cx="354.628555059433" cy="186.33025288581848" rx="2.0035512447357178" ry="2.0035512447357178" fill-opacity="0" stroke-opacity="1" stroke="#7B4F27" fill="none" stroke-width="3" stroke-linecap="ROUND" stroke-linejoin="round"/></g></g><g><g filter="url(#master_svg3_3_2335)"><ellipse cx="90.0868673324585" cy="225.3875722885141" rx="11.293822288513184" ry="11.293822288513184" fill="#FFFFFF" fill-opacity="1"/><ellipse cx="90.0868673324585" cy="225.3875722885141" rx="11.293822288513184" ry="11.293822288513184" fill-opacity="0" stroke-opacity="1" stroke="#7B4F27" fill="none" stroke-width="3" stroke-linecap="ROUND" stroke-linejoin="round"/></g></g><g><ellipse cx="333.16193199157715" cy="242.7159023284912" rx="5.724431991577148" ry="5.724431991577148" fill="#FFFFFF" fill-opacity="1"/><ellipse cx="333.16193199157715" cy="242.7159023284912" rx="5.724431991577148" ry="5.724431991577148" fill-opacity="0" stroke-opacity="1" stroke="#7B4F27" fill="none" stroke-width="3" stroke-linecap="ROUND" stroke-linejoin="round"/></g><g><ellipse cx="115.6335220336914" cy="97.88778114318848" rx="6.869318008422852" ry="6.869318008422852" fill="#FFFFFF" fill-opacity="1"/><ellipse cx="115.6335220336914" cy="97.88778114318848" rx="6.869318008422852" ry="6.869318008422852" fill-opacity="0" stroke-opacity="1" stroke="#7B4F27" fill="none" stroke-width="3" stroke-linecap="ROUND" stroke-linejoin="round"/></g><g><ellipse cx="127.08238363265991" cy="163.14630270004272" rx="4.579545497894287" ry="4.579545497894287" fill="#FFFFFF" fill-opacity="0"/><ellipse cx="127.08238363265991" cy="163.14630270004272" rx="4.579545497894287" ry="4.579545497894287" fill-opacity="0" stroke-opacity="1" stroke="#7B4F27" fill="none" stroke-width="3" stroke-linecap="ROUND" stroke-linejoin="round"/></g></g><g><g filter="url(#master_svg4_3_2327)"><path d="M293.3859358062744,237.2545Q294.58893580627443,233.8885,295.4989358062744,230.4305Q296.4089358062744,226.9735,297.0199358062744,223.4503Q297.6299358062744,219.9275,297.9369358062744,216.3654Q298.24293580627443,212.80329999999998,298.24293580627443,209.228Q298.24293580627443,207.1833,298.1429358062744,205.1411Q298.0419358062744,203.09890000000001,297.8419358062744,201.0641Q297.64093580627446,199.0293,297.3409358062744,197.0067Q297.04093580627443,194.9842,296.6429358062744,192.9788Q296.2439358062744,190.9734,295.74693580627445,188.99Q295.2499358062744,187.0067,294.65593580627444,185.05Q294.0629358062744,183.0934,293.3739358062744,181.1683Q292.68493580627444,179.2431,291.9029358062744,177.35410000000002Q291.1199358062744,175.4651,290.2459358062744,173.6167Q289.37193580627445,171.76839999999999,288.4079358062744,169.9651Q287.44393580627445,168.1619,286.3929358062744,166.4081Q285.3419358062744,164.6543,284.2059358062744,162.9543Q283.06993580627443,161.2542,281.8519358062744,159.6119Q280.6339358062744,157.9696,279.3369358062744,156.38909999999998Q278.0399358062744,154.8085,276.6669358062744,153.2935Q275.2939358062744,151.7785,273.84793580627445,150.3327Q272.4019358062744,148.8869,270.88693580627444,147.5138Q269.37193580627445,146.1407,267.79093580627443,144.8436Q266.2109358062744,143.5464,264.56893580627445,142.3284Q262.9259358062744,141.1104,261.2259358062744,139.9745Q259.52593580627445,138.8385,257.7719358062744,137.7874Q256.0189358062744,136.7362,254.2149358062744,135.77233999999999Q252.4119358062744,134.80849,250.5639358062744,133.93428Q248.7149358062744,133.06007,246.8259358062744,132.27761Q244.93693580627442,131.49515,243.0119358062744,130.80632Q241.08693580627443,130.1175,239.12993580627443,129.52396Q237.17393580627441,128.93042,235.18993580627443,128.43361Q233.20693580627443,127.9368,231.20153580627442,127.5379Q229.19623580627442,127.13901,227.17363580627443,126.838994Q225.1511358062744,126.538979,223.11633580627444,126.338566Q221.08153580627442,126.138154,219.0393358062744,126.037827Q216.99703580627443,125.9375,214.95243580627442,125.9375Q213.23073580627442,125.9375,211.51053580627442,126.0086461Q209.7903358062744,126.079792,208.0745358062744,126.221963Q206.3587358062744,126.364134,204.65033580627443,126.577086Q202.9418358062744,126.790039,201.24363580627443,127.07341Q199.5454358062744,127.35678,197.8604358062744,127.71008Q196.1754358062744,128.06339,194.5064358062744,128.48602Q192.8374358062744,128.90866,191.1873358062744,129.3999Q189.53723580627442,129.89114,187.90873580627442,130.45015Q186.2804358062744,131.00917,184.67653580627442,131.63499Q183.0726358062744,132.26082,181.49593580627442,132.95239Q179.9192358062744,133.64396,178.3725358062744,134.40009Q176.82573580627442,135.15622,175.3115358062744,135.9756Q173.79743580627442,136.795,172.3183358062744,137.6763Q170.83933580627442,138.5576,169.3980358062744,139.4992Q167.95663580627442,140.4409,166.55543580627443,141.4413Q165.15423580627441,142.4417,163.79553580627442,143.4991L159.9726358062744,139.6761L145.4005358062744,154.2482L149.2235358062744,158.0711Q148.1661358062744,159.4298,147.16573580627443,160.83100000000002Q146.1653358062744,162.2322,145.22363580627442,163.6736Q144.28203580627442,165.1149,143.4007358062744,166.5939Q142.5194358062744,168.0729,141.7000358062744,169.5871Q140.8806558062744,171.1013,140.12452580627442,172.6481Q139.3683958062744,174.1948,138.67682580627442,175.7715Q137.9852558062744,177.3481,137.3594258062744,178.9521Q136.73360580627443,180.55599999999998,136.17458580627442,182.1843Q135.61557580627442,183.8127,135.12433580627442,185.4629Q134.6330958062744,187.113,134.2104558062744,188.7819Q133.7878258062744,190.4509,133.43451580627442,192.136Q133.0812158062744,193.821,132.7978458062744,195.5192Q132.51447480627442,197.2174,132.30152180627442,198.9259Q132.08856980627442,200.6343,131.9463988062744,202.3501Q131.8042278062744,204.0659,131.7330819062744,205.7861Q131.6619358062744,207.5063,131.6619358062744,209.228Q131.6619358062744,210.7819,131.7198979062744,212.3348Q131.77785980627442,213.88760000000002,131.8937038062744,215.43720000000002Q132.00954680627441,216.98680000000002,132.1831108062744,218.531Q132.35667380627442,220.0752,132.58771680627441,221.6119Q132.81875580627442,223.1485,133.1069558062744,224.6755Q133.3951558062744,226.2025,133.74011580627442,227.7175Q134.0850658062744,229.23250000000002,134.48629580627443,230.7335Q134.88752580627443,232.2355,135.3444758062744,233.72050000000002Q135.8014258062744,235.2055,136.31345580627442,236.6725Q136.8254858062744,238.1395,137.39188580627442,239.5865Q137.9582858062744,241.0335,138.5782658062744,242.45850000000002Q139.19824580627443,243.8835,139.87093580627442,245.28449999999998Q140.5436358062744,246.6855,141.2681158062744,248.0605Q141.99263580627442,249.4345,142.7678358062744,250.7815Q143.54313580627442,252.1285,144.3680358062744,253.44549999999998Q145.19293580627442,254.7615,146.06643580627443,256.0475L143.6833358062744,257.8425L147.8173358062744,263.3295L150.15893580627443,261.5645Q150.8879358062744,262.4665,151.64173580627443,263.3485Q152.3955358062744,264.2305,153.1736358062744,265.0915Q153.95163580627442,265.9515,154.7534358062744,266.7895Q155.55513580627442,267.62850000000003,156.3799358062744,268.4445Q157.2047358062744,269.2605,158.0519358062744,270.0525Q158.8990358062744,270.8455,159.7680358062744,271.6135Q160.6369358062744,272.3825,161.52693580627442,273.12649999999996Q162.4169358062744,273.8705,163.32733580627442,274.5895Q164.2376358062744,275.3085,165.1677358062744,276.0025Q166.09773580627441,276.69550000000004,167.0467358062744,277.3625Q167.9957358062744,278.03049999999996,168.9629358062744,278.6705Q169.93023580627442,279.3115,170.91483580627443,279.92449999999997Q171.8995358062744,280.5375,172.90093580627442,281.12350000000004Q173.9023358062744,281.7095,174.9196358062744,282.2665Q175.93693580627442,282.8245,176.96933580627442,283.3535Q178.0018358062744,283.8825,179.0486358062744,284.3825Q180.09533580627442,284.8825,181.1556358062744,285.3535Q182.21593580627442,285.8245,183.28893580627442,286.2655Q184.3619358062744,286.7065,185.4468358062744,287.1175Q186.5316358062744,287.5285,187.6275358062744,287.9085Q188.7234358062744,288.2895,189.8295358062744,288.6395Q190.9355358062744,288.9895,192.05093580627442,289.3085Q193.16633580627442,289.6275,194.2901358062744,289.9145Q195.41393580627442,290.2025,196.5453358062744,290.4595Q197.6767358062744,290.7155,198.81493580627443,290.9405Q199.9530358062744,291.1645,201.09693580627442,291.35749999999996Q202.24083580627442,291.5505,203.38973580627442,291.7115Q204.5385358062744,291.87350000000004,205.6914358062744,292.00149999999996Q206.84433580627442,292.1305,208.00043580627442,292.22749999999996Q209.15643580627443,292.3245,210.31473580627443,292.3895Q211.47303580627442,292.45349999999996,212.6326358062744,292.4865Q213.79233580627442,292.5185,214.95243580627442,292.5185Q216.29913580627442,292.5185,217.64513580627442,292.47450000000003Q218.9912358062744,292.4315,220.33513580627442,292.34450000000004Q221.6790358062744,292.2575,223.01943580627443,292.12649999999996Q224.35973580627441,291.99649999999997,225.6952358062744,291.8225Q227.0307358062744,291.6495,228.35983580627442,291.4325Q229.68903580627443,291.2155,231.01053580627442,290.95550000000003Q232.33193580627443,290.6965,233.6439358062744,290.3935Q234.95693580627443,290.0915,236.2589358062744,289.7475Q237.56093580627441,289.40250000000003,238.8509358062744,289.0165Q240.1409358062744,288.6295,241.41793580627441,288.2025Q242.69493580627443,287.7745,243.95693580627443,287.3055Q245.21893580627443,286.8365,246.46593580627442,286.3265Q247.7129358062744,285.8175,248.94193580627442,285.26750000000004Q250.1719358062744,284.7175,251.38293580627442,284.12850000000003Q252.59393580627443,283.5395,253.7849358062744,282.9115Q254.9769358062744,282.2845,256.1469358062744,281.6175Q257.3179358062744,280.9515,258.4659358062744,280.24850000000004Q259.6139358062744,279.54449999999997,260.7389358062744,278.80449999999996Q261.8639358062744,278.0645,262.9649358062744,277.2875Q264.06493580627443,276.5115,265.1399358062744,275.70050000000003Q266.2149358062744,274.8885,267.2629358062744,274.0425Q268.3109358062744,273.1965,269.3309358062744,272.3175Q270.3509358062744,271.4385,271.3419358062744,270.5265Q272.3329358062744,269.6145,273.2939358062744,268.67150000000004Q274.2549358062744,267.7285,275.18493580627444,266.7545Q276.1159358062744,265.78049999999996,277.0139358062744,264.77750000000003Q277.9119358062744,263.7735,278.7769358062744,262.7415Q279.6429358062744,261.7095,280.4739358062744,260.65049999999997Q281.30493580627444,259.5905,282.1019358062744,258.5045Q282.8989358062744,257.41949999999997,283.6599358062744,256.3085Q284.42093580627443,255.1975,285.14593580627445,254.0625Q285.8709358062744,252.9275,286.5589358062744,251.7695L291.8169358062744,254.0015L298.0799358062744,239.2475L293.3859358062744,237.2545Z" fill-rule="evenodd" fill="#FFFFFF" fill-opacity="1"/><path d="M291.0319358062744,236.4135Q295.74293580627443,223.2289,295.74293580627443,209.228Q295.74293580627443,193.8177,290.0709358062744,179.4894Q283.91093580627444,163.93189999999998,272.0799358062744,152.1005Q260.2489358062744,140.269,244.6909358062744,134.10994Q230.3626358062744,128.4375,214.95243580627442,128.4375Q201.47123580627442,128.4375,188.72053580627443,132.8147Q175.9697358062744,137.1919,165.33103580627443,145.472Q165.24183580627442,145.54149999999998,165.14663580627442,145.6026Q165.0514358062744,145.6637,164.9512358062744,145.716Q164.8509358062744,145.7683,164.74633580627443,145.8113Q164.64163580627442,145.8543,164.53363580627442,145.8877Q164.4255358062744,145.9211,164.3149358062744,145.9446Q164.20423580627443,145.9681,164.09193580627442,145.9815Q163.97963580627442,145.9949,163.86663580627442,145.9981Q163.7535358062744,146.00130000000001,163.64063580627442,145.9943Q163.52773580627442,145.9873,163.4159358062744,145.9701Q163.30413580627442,145.953,163.1943358062744,145.9258Q163.0846358062744,145.8986,162.9777358062744,145.8616Q162.8708358062744,145.8246,162.7677358062744,145.7781Q162.66463580627442,145.73160000000001,162.56613580627442,145.6759Q162.46763580627442,145.6203,162.37463580627443,145.556Q162.2815358062744,145.4917,162.19463580627442,145.4193Q162.1078358062744,145.3469,162.02783580627442,145.2669L158.20483580627442,141.44389999999999L159.9726358062744,139.6761L161.7403358062744,141.44389999999999L147.1683358062744,156.0159L145.4005358062744,154.2482L147.1683358062744,152.4804L150.9913358062744,156.3034Q151.07133580627442,156.3834,151.1437358062744,156.4702Q151.21613580627442,156.5571,151.28043580627443,156.6502Q151.3447358062744,156.7432,151.40033580627443,156.8417Q151.45603580627443,156.9402,151.5025358062744,157.0433Q151.54903580627442,157.1464,151.58603580627442,157.2533Q151.6230358062744,157.3602,151.65023580627442,157.4699Q151.67743580627442,157.5797,151.69453580627442,157.6915Q151.71173580627442,157.8033,151.71873580627442,157.9162Q151.72573580627443,158.0291,151.7225358062744,158.1422Q151.71933580627442,158.2552,151.70593580627443,158.3675Q151.6925358062744,158.4798,151.66903580627442,158.5905Q151.6455358062744,158.7011,151.6121358062744,158.8092Q151.5787358062744,158.9172,151.5357358062744,159.02190000000002Q151.49273580627442,159.1265,151.44043580627442,159.2268Q151.38813580627442,159.327,151.3270358062744,159.4222Q151.2659358062744,159.5174,151.19643580627442,159.60660000000001Q142.91633580627442,170.2454,138.5391358062744,182.9961Q134.1619358062744,195.7468,134.1619358062744,209.228Q134.1619358062744,221.3752,137.73394580627442,232.9855Q141.30594580627442,244.59550000000002,148.1341358062744,254.6415Q148.2010358062744,254.7405,148.2582358062744,254.8445Q148.31543580627442,254.9485,148.36253580627442,255.0585Q148.40963580627442,255.1675,148.4461358062744,255.2805Q148.48253580627443,255.3935,148.50813580627442,255.5105Q148.53363580627442,255.6265,148.54813580627442,255.7445Q148.5625358062744,255.8625,148.56563580627443,255.9815Q148.56873580627442,256.1005,148.5605358062744,256.21950000000004Q148.5523358062744,256.3375,148.53293580627442,256.45550000000003Q148.5134358062744,256.5725,148.4829358062744,256.6875Q148.45253580627443,256.8025,148.41123580627442,256.9145Q148.3699358062744,257.02549999999997,148.3182358062744,257.1335Q148.26653580627442,257.2405,148.20493580627442,257.3425Q148.14323580627442,257.4435,148.07223580627442,257.5395Q148.00123580627442,257.6345,147.92143580627442,257.7235Q147.8416358062744,257.8115,147.75383580627442,257.8915Q147.6660358062744,257.97249999999997,147.5710358062744,258.0435L145.18783580627442,259.8395L143.6833358062744,257.8425L145.67993580627441,256.3385L149.8139358062744,261.8245L147.8173358062744,263.3295L146.31283580627442,261.3325L148.65443580627442,259.5675Q148.75043580627442,259.4955,148.8528358062744,259.4325Q148.9553358062744,259.3705,149.0633358062744,259.3175Q149.17143580627442,259.2645,149.2840358062744,259.22249999999997Q149.39653580627441,259.1805,149.5126358062744,259.1495Q149.62873580627442,259.11850000000004,149.7473358062744,259.0985Q149.86583580627442,259.07849999999996,149.98573580627442,259.07050000000004Q150.10563580627442,259.0625,150.22573580627443,259.0655Q150.3459358062744,259.0685,150.46513580627442,259.08349999999996Q150.58443580627443,259.0985,150.70173580627443,259.1245Q150.81903580627443,259.15049999999997,150.9333358062744,259.1875Q151.0476358062744,259.22450000000003,151.15773580627442,259.27250000000004Q151.2679358062744,259.32050000000004,151.3730358062744,259.3795Q151.47803580627442,259.4375,151.5770358062744,259.5055Q151.6760358062744,259.57349999999997,151.7680358062744,259.6515Q151.85993580627442,259.7285,151.9441358062744,259.8145Q152.0282358062744,259.90049999999997,152.10373580627441,259.99350000000004Q157.7115358062744,266.9365,164.6994358062744,272.4875Q171.86673580627442,278.1805,180.12623580627442,282.12649999999996Q188.38563580627442,286.0725,197.31863580627441,288.07050000000004Q206.02783580627442,290.0185,214.95243580627442,290.0185Q225.2799358062744,290.0185,235.2749358062744,287.4205Q245.62093580627442,284.7315,254.9109358062744,279.44550000000004Q264.2009358062744,274.1585,271.79593580627443,266.6375Q279.1349358062744,259.37149999999997,284.4099358062744,250.4925Q284.4669358062744,250.3965,284.5329358062744,250.3055Q284.5989358062744,250.2145,284.6719358062744,250.1295Q284.7459358062744,250.0445,284.8269358062744,249.9675Q284.9079358062744,249.8895,284.9959358062744,249.8195Q285.0829358062744,249.7485,285.1769358062744,249.6865Q285.2699358062744,249.6245,285.3689358062744,249.57150000000001Q285.46793580627445,249.51749999999998,285.5709358062744,249.4735Q285.6739358062744,249.42849999999999,285.78093580627444,249.39350000000002Q285.88693580627444,249.3595,285.99693580627445,249.33350000000002Q286.1059358062744,249.30849999999998,286.2169358062744,249.2935Q286.32893580627444,249.2775,286.4409358062744,249.27249999999998Q286.5529358062744,249.26749999999998,286.6649358062744,249.2715Q286.7769358062744,249.2765,286.8889358062744,249.29149999999998Q286.9999358062744,249.3065,287.1089358062744,249.3305Q287.21893580627443,249.3555,287.3259358062744,249.3905Q287.4329358062744,249.4245,287.53593580627444,249.4685L292.7939358062744,251.7005L291.8169358062744,254.0015L289.5149358062744,253.0245L295.7779358062744,238.2705L298.0799358062744,239.2475L297.10293580627444,241.5485L292.4089358062744,239.5565Q292.29993580627445,239.5095,292.1959358062744,239.45350000000002Q292.0919358062744,239.39749999999998,291.9939358062744,239.3315Q291.89593580627445,239.2655,291.8039358062744,239.1905Q291.7129358062744,239.1165,291.6279358062744,239.0325Q291.5439358062744,238.9495,291.46793580627445,238.8595Q291.3929358062744,238.76850000000002,291.3259358062744,238.6705Q291.2589358062744,238.5735,291.2009358062744,238.47050000000002Q291.1439358062744,238.3665,291.0959358062744,238.2585Q291.0489358062744,238.1505,291.01193580627444,238.0375Q290.9749358062744,237.9255,290.9479358062744,237.8105Q290.9219358062744,237.6945,290.9069358062744,237.5775Q290.89193580627443,237.4605,290.88693580627444,237.3425Q290.8829358062744,237.2245,290.8899358062744,237.1055Q290.8969358062744,236.9875,290.91593580627443,236.8715Q290.9339358062744,236.7545,290.9629358062744,236.6395Q290.99193580627445,236.5245,291.0319358062744,236.4135ZM295.7399358062744,238.0965L293.3859358062744,237.2545L294.36293580627444,234.95350000000002L299.0559358062744,236.94549999999998Q299.0559358062744,236.94549999999998,299.0559358062744,236.94549999999998Q299.1689358062744,236.99349999999998,299.2769358062744,237.0525Q299.3849358062744,237.1115,299.4869358062744,237.1805Q299.5879358062744,237.2495,299.6819358062744,237.32850000000002Q299.7769358062744,237.4075,299.86293580627444,237.49450000000002Q299.94893580627445,237.58249999999998,300.02593580627445,237.67849999999999Q300.10293580627444,237.7735,300.16993580627445,237.8765Q300.23793580627444,237.9795,300.29493580627445,238.0875Q300.3519358062744,238.19650000000001,300.3979358062744,238.3105Q300.44393580627445,238.4245,300.47793580627444,238.54250000000002Q300.5129358062744,238.6605,300.53593580627444,238.78050000000002Q300.5589358062744,238.9015,300.56993580627443,239.0235Q300.5809358062744,239.1465,300.57893580627444,239.26850000000002Q300.5779358062744,239.3915,300.56493580627443,239.5135Q300.5519358062744,239.6365,300.5269358062744,239.75650000000002Q300.50193580627445,239.8765,300.4649358062744,239.99349999999998Q300.4289358062744,240.1105,300.3809358062744,240.2245L294.11793580627443,254.9785Q294.06993580627443,255.0915,294.0109358062744,255.1995Q293.9519358062744,255.3065,293.8829358062744,255.4085Q293.8139358062744,255.5095,293.7349358062744,255.6045Q293.6569358062744,255.6985,293.56893580627445,255.7845Q293.4809358062744,255.8705,293.3859358062744,255.9475Q293.2899358062744,256.0245,293.1869358062744,256.0925Q293.0849358062744,256.1595,292.9759358062744,256.2165Q292.86693580627445,256.2735,292.7529358062744,256.3195Q292.6389358062744,256.3655,292.5219358062744,256.40049999999997Q292.4039358062744,256.4345,292.2829358062744,256.4575Q292.1619358062744,256.4805,292.0399358062744,256.4915Q291.9179358062744,256.5025,291.79493580627445,256.50149999999996Q291.6719358062744,256.5005,291.54993580627445,256.4875Q291.4279358062744,256.47450000000003,291.3079358062744,256.4495Q291.1869358062744,256.42449999999997,291.06993580627443,256.3875Q290.9529358062744,256.3505,290.8399358062744,256.3025L285.5819358062744,254.0705L286.5589358062744,251.7695L288.7079358062744,253.04649999999998Q283.1069358062744,262.47450000000003,275.3139358062744,270.1905Q267.2489358062744,278.17650000000003,257.3839358062744,283.7905Q247.5189358062744,289.4045,236.5329358062744,292.2595Q225.9190358062744,295.0185,214.95243580627442,295.0185Q205.47543580627442,295.0185,196.22733580627443,292.95050000000003Q186.7415358062744,290.82849999999996,177.9709358062744,286.6385Q169.2002358062744,282.44849999999997,161.58943580627442,276.40250000000003Q154.16903580627442,270.5075,148.2141358062744,263.1355L150.15893580627443,261.5645L151.6635358062744,263.5615L149.3219358062744,265.32550000000003Q149.22383580627442,265.3995,149.1189358062744,265.4635Q149.01413580627442,265.52750000000003,148.90343580627442,265.58050000000003Q148.7928358062744,265.6345,148.67753580627442,265.67650000000003Q148.56223580627443,265.7185,148.4433358062744,265.7495Q148.3244358062744,265.78049999999996,148.2030358062744,265.79949999999997Q148.08173580627442,265.8185,147.95913580627442,265.8245Q147.8364358062744,265.8315,147.71373580627443,265.8265Q147.59103580627442,265.8215,147.46943580627442,265.80449999999996Q147.34783580627442,265.7875,147.2284358062744,265.7585Q147.10903580627442,265.72950000000003,146.9931358062744,265.6895Q146.87713580627442,265.6485,146.76573580627442,265.59749999999997Q146.65433580627442,265.5455,146.5485358062744,265.4835Q146.4427358062744,265.4205,146.3434358062744,265.3485Q146.24423580627442,265.27549999999997,146.15263580627442,265.1945Q146.06103580627442,265.1125,145.9778358062744,265.02250000000004Q145.8946358062744,264.9315,145.8207358062744,264.83349999999996L141.6867358062744,259.34749999999997Q141.61279580627442,259.2495,141.54885580627442,259.1445Q141.48491580627442,259.0395,141.43155580627442,258.92949999999996Q141.37819580627442,258.8185,141.33593580627442,258.70349999999996Q141.29368580627442,258.5875,141.2629258062744,258.4685Q141.23217580627443,258.3505,141.2132358062744,258.2285Q141.19428580627442,258.10749999999996,141.18731580627443,257.9845Q141.1803558062744,257.8625,141.1854458062744,257.7395Q141.19053580627443,257.6165,141.20762580627442,257.4955Q141.22472580627442,257.37350000000004,141.25365580627442,257.2545Q141.28258580627443,257.1345,141.3230758062744,257.0185Q141.3635658062744,256.90250000000003,141.4152258062744,256.79150000000004Q141.4668858062744,256.67949999999996,141.5292258062744,256.5745Q141.5915558062744,256.4685,141.66393580627442,256.3695Q141.7363358062744,256.2695,141.81813580627443,256.1785Q141.8999358062744,256.0865,141.9903358062744,256.00350000000003Q142.08063580627442,255.9205,142.1787358062744,255.8465L144.56193580627442,254.0505L146.06643580627443,256.0475L143.99883580627443,257.4525Q136.74808580627442,246.78449999999998,132.95501580627442,234.4555Q129.1619358062744,222.127,129.1619358062744,209.228Q129.1619358062744,194.9125,133.8100358062744,181.3726Q138.4581358062744,167.8327,147.2506358062744,156.5357L149.2235358062744,158.0711L147.45583580627442,159.8389L143.63283580627441,156.0159Q143.54593580627443,155.9291,143.46803580627443,155.8342Q143.3901358062744,155.7392,143.3219358062744,155.6371Q143.25363580627442,155.535,143.1957358062744,155.4267Q143.1378358062744,155.3183,143.0908358062744,155.2049Q143.04383580627442,155.0914,143.0082358062744,154.97390000000001Q142.9725358062744,154.8563,142.9486358062744,154.73590000000002Q142.9246358062744,154.6154,142.9126358062744,154.4932Q142.9005358062744,154.371,142.9005358062744,154.2482Q142.9005358062744,154.1254,142.9126358062744,154.0031Q142.9246358062744,153.8809,142.9486358062744,153.7604Q142.9725358062744,153.64,143.0082358062744,153.5225Q143.04383580627442,153.4049,143.0908358062744,153.29149999999998Q143.1378358062744,153.178,143.1957358062744,153.0697Q143.25363580627442,152.9614,143.3219358062744,152.8592Q143.3901358062744,152.7571,143.46803580627443,152.66219999999998Q143.54593580627443,152.5672,143.63283580627441,152.4804L158.20483580627442,137.9084Q158.29163580627443,137.82150000000001,158.3866358062744,137.74360000000001Q158.48153580627442,137.6657,158.5836358062744,137.5975Q158.6858358062744,137.5292,158.79413580627443,137.47129999999999Q158.9024358062744,137.4134,159.0159358062744,137.3664Q159.1293358062744,137.3194,159.24693580627442,137.28379999999999Q159.3644358062744,137.2481,159.48483580627442,137.2242Q159.6053358062744,137.2002,159.7275358062744,137.1882Q159.84983580627443,137.1761,159.9726358062744,137.1761Q160.09543580627442,137.1761,160.21763580627442,137.1882Q160.3398358062744,137.2002,160.46033580627443,137.2242Q160.58083580627442,137.2481,160.69833580627443,137.28379999999999Q160.8158358062744,137.3194,160.92933580627442,137.3664Q161.0427358062744,137.4134,161.15113580627443,137.47129999999999Q161.2594358062744,137.5292,161.36153580627442,137.5975Q161.46363580627443,137.6657,161.55863580627442,137.74360000000001Q161.65353580627442,137.82150000000001,161.7403358062744,137.9084L165.5633358062744,141.7314L163.79553580627442,143.4991L162.2601358062744,141.5262Q173.5571358062744,132.73371,187.09703580627442,128.0856Q200.6369358062744,123.4375,214.95243580627442,123.4375Q231.31633580627442,123.4375,246.53193580627442,129.461Q263.0519358062744,136.00130000000001,275.6159358062744,148.5649Q288.1789358062744,161.1287,294.71893580627443,177.649Q300.74293580627443,192.8639,300.74293580627443,209.228Q300.74293580627443,224.09550000000002,295.7399358062744,238.0965Z" fill="#7B4F27" fill-opacity="1"/></g><g filter="url(#master_svg5_3_2326)"><ellipse cx="249.01278352737427" cy="235.84659242630005" rx="7.441761493682861" ry="7.441761493682861" fill="#FBD59F" fill-opacity="1"/><ellipse cx="249.01278352737427" cy="235.84659242630005" rx="7.441761493682861" ry="7.441761493682861" fill-opacity="0" stroke-opacity="1" stroke="#7B4F27" fill="none" stroke-width="5" stroke-linecap="ROUND" stroke-linejoin="round"/></g><g filter="url(#master_svg6_3_2325)"><ellipse cx="201.78622913360596" cy="260.74787616729736" rx="12.879971504211426" ry="12.879971504211426" fill="#FBD59F" fill-opacity="1"/><ellipse cx="201.78622913360596" cy="260.74787616729736" rx="12.879971504211426" ry="12.879971504211426" fill-opacity="0" stroke-opacity="1" stroke="#7B4F27" fill="none" stroke-width="5" stroke-linecap="ROUND" stroke-linejoin="round"/></g><g filter="url(#master_svg7_3_2316)"><ellipse cx="177.45739364624023" cy="195.77556991577148" rx="11.448863983154297" ry="11.448863983154297" fill="#FBD59F" fill-opacity="1"/><ellipse cx="177.45739364624023" cy="195.77556991577148" rx="11.448863983154297" ry="11.448863983154297" fill-opacity="0" stroke-opacity="1" stroke="#7B4F27" fill="none" stroke-width="5" stroke-linecap="ROUND" stroke-linejoin="round"/></g><g transform="matrix(-1,0,0,-1,583.8920440673828,352.625)"><path d="M291.9460220336914,180.3196Q297.0980120336914,176.3125,305.6846220336914,176.3125Q314.2713220336914,176.3125,322.8579220336914,182.60938L322.8579220336914,248.44029999999998Q314.2713220336914,242.14350000000002,305.6846220336914,242.14350000000002Q297.0980120336914,242.14350000000002,291.9460220336914,246.1506L291.9460220336914,180.3196Z" fill-rule="evenodd" fill="#FBD59F" fill-opacity="1"/><path d="M289.4460220336914,180.3196L289.4460220336914,246.1506Q289.4460220336914,246.5675,289.5813420336914,246.9619Q289.7166520336914,247.3563,289.9726420336914,247.68540000000002Q290.0480420336914,247.7824,290.1325820336914,247.8715Q290.2171320336914,247.9605,290.3099920336914,248.0409Q290.4028620336914,248.12130000000002,290.5031620336914,248.1922Q290.6034520336914,248.2631,290.7102220336914,248.3238Q290.81698203369143,248.3845,290.9291820336914,248.43439999999998Q291.0413790336914,248.4844,291.1579340336914,248.5231Q291.2744890336914,248.5618,291.3942780336914,248.5889Q291.5140670336914,248.61599999999999,291.6359360336914,248.6313Q291.7578040336914,248.6465,291.8805794336914,248.6497Q292.0033545336914,248.6529,292.1258540336914,248.64409999999998Q292.2483530336914,248.6353,292.36939603369143,248.6144Q292.4904390336914,248.5937,292.6088610336914,248.5611Q292.7272820336914,248.5285,292.8419420336914,248.4845Q292.9566020336914,248.4405,293.0663920336914,248.38549999999998Q293.1761920336914,248.3304,293.2800620336914,248.2649Q293.3839320336914,248.1993,293.4808720336914,248.1239Q297.95578203369143,244.64350000000002,305.6846220336914,244.64350000000002Q313.4529220336914,244.64350000000002,321.3795220336914,250.4564Q321.7011220336914,250.6922,322.0801220336914,250.8163Q322.4591220336914,250.94029999999998,322.8579220336914,250.94029999999998Q322.9807220336914,250.94029999999998,323.1030220336914,250.92829999999998Q323.2252220336914,250.9163,323.3457220336914,250.8923Q323.4661220336914,250.8683,323.5836220336914,250.8327Q323.7012220336914,250.797,323.8146220336914,250.75Q323.9281220336914,250.703,324.0364220336914,250.6451Q324.14472203369144,250.5872,324.2469220336914,250.519Q324.3490220336914,250.45080000000002,324.4439220336914,250.37290000000002Q324.5389220336914,250.29500000000002,324.62572203369143,250.2081Q324.7125220336914,250.12130000000002,324.7905220336914,250.0263Q324.8684220336914,249.9314,324.9366220336914,249.8293Q325.0048220336914,249.7271,325.0627220336914,249.6188Q325.1206220336914,249.51049999999998,325.16762203369143,249.397Q325.2146220336914,249.2836,325.2503220336914,249.166Q325.2859220336914,249.0485,325.3099220336914,248.9281Q325.3339220336914,248.80759999999998,325.3459220336914,248.68540000000002Q325.3579220336914,248.5632,325.3579220336914,248.44029999999998L325.3579220336914,182.60938Q325.3579220336914,182.46264,325.3408220336914,182.31691Q325.32362203369144,182.17118,325.2895220336914,182.02845Q325.2554220336914,181.88573,325.2049220336914,181.74798Q325.1543220336914,181.61023,325.0880220336914,181.47934Q325.0216220336914,181.34844,324.9404220336914,181.22621Q324.8593220336914,181.10398,324.7643220336914,180.99208Q324.6694220336914,180.88018,324.5620220336914,180.78016Q324.4547220336914,180.68014,324.33632203369143,180.59336Q315.08972203369143,173.8125,305.6846220336914,173.8125Q296.2402420336914,173.8125,290.4111720336914,178.34622Q290.1857820336914,178.52152,290.0057320336914,178.74312Q289.8256820336914,178.96473,289.7002320336914,179.22122Q289.5747820336914,179.47772,289.51040203369143,179.7559Q289.4460220336914,180.03406999999999,289.4460220336914,180.3196ZM294.4460220336914,241.76909999999998Q299.2178120336914,239.64350000000002,305.6846220336914,239.64350000000002Q313.0701220336914,239.64350000000002,320.3579220336914,243.82479999999998L320.3579220336914,183.89991Q312.9520220336914,178.8125,305.6846220336914,178.8125Q298.7589220336914,178.8125,294.4460220336914,181.60722L294.4460220336914,241.76909999999998Z" fill-rule="evenodd" fill="#7B4F27" fill-opacity="1"/></g><g filter="url(#master_svg8_3_2318)"><path d="M200.35511779785156,107.04688Q219.10261779785156,100.75,237.85011779785157,100.75Q256.59761779785157,100.75,275.34521779785155,107.04688L275.34521779785155,172.87779999999998Q256.59761779785157,166.58100000000002,237.85011779785157,166.58100000000002Q219.10261779785156,166.58100000000002,200.35511779785156,172.87779999999998L200.35511779785156,107.04688Z" fill-rule="evenodd" fill="#FFFFFF" fill-opacity="1"/><path d="M197.85511779785156,107.04688L197.85511779785156,172.87779999999998Q197.85511779785156,173.2865,197.98522779785156,173.6738Q198.02432779785156,173.7903,198.07465779785156,173.9023Q198.12498779785156,174.0143,198.18605779785156,174.1209Q198.24711779785156,174.2274,198.31833779785157,174.3275Q198.38955779785155,174.42759999999998,198.47023779785155,174.5201Q198.55091779785155,174.6128,198.64028779785156,174.697Q198.72965779785156,174.7812,198.82685779785157,174.8563Q198.92404779785156,174.9314,199.02813779785157,174.9966Q199.13222779785156,175.0618,199.24220779785156,175.1165Q199.35217779785157,175.1711,199.46698579785155,175.2148Q199.58179179785157,175.2584,199.70032079785156,175.29059999999998Q199.81885079785155,175.3227,199.93996279785156,175.3431Q200.06107479785157,175.3635,200.18360179785157,175.37189999999998Q200.30612989785158,175.3804,200.42889349785156,175.3767Q200.55165679785156,175.3731,200.67347479785155,175.35750000000002Q200.79529179785158,175.3418,200.91498979785158,175.3143Q201.03468679785155,175.2868,201.15111279785157,175.2477Q219.51121779785157,169.08100000000002,237.85011779785157,169.08100000000002Q256.18901779785153,169.08089999999999,274.54921779785155,175.2477Q274.9365177978516,175.37779999999998,275.34521779785155,175.37779999999998Q275.46801779785153,175.37779999999998,275.59021779785155,175.36579999999998Q275.7124177978516,175.3538,275.83291779785156,175.3298Q275.9533177978516,175.3058,276.07091779785156,175.2702Q276.18841779785157,175.2345,276.30191779785156,175.1875Q276.41531779785157,175.1405,276.52361779785156,175.0826Q276.6320177978516,175.0247,276.7341177978516,174.9565Q276.83621779785153,174.88830000000002,276.9311177978516,174.81040000000002Q277.02611779785155,174.73250000000002,277.11291779785154,174.6456Q277.19981779785155,174.55880000000002,277.27771779785155,174.4638Q277.35561779785155,174.3689,277.4238177978516,174.2668Q277.49211779785156,174.1646,277.5500177978516,174.0563Q277.60791779785154,173.94799999999998,277.65491779785157,173.8345Q277.7019177978516,173.7211,277.7375177978516,173.6035Q277.77321779785154,173.486,277.79711779785157,173.3656Q277.82111779785157,173.24509999999998,277.83311779785157,173.12290000000002Q277.84521779785155,173.0007,277.84521779785155,172.87779999999998L277.84521779785155,107.04688Q277.84521779785155,106.85167,277.81491779785154,106.65884Q277.7846177978516,106.466,277.72471779785155,106.28021Q277.6648177978516,106.09441,277.5769177978516,105.92016Q277.48891779785157,105.74591,277.3749177978516,105.58742Q277.26101779785154,105.42894,277.12381779785153,105.29006Q276.9866177978516,105.15118,276.8296177978516,105.03528Q276.6725177978516,104.91937,276.49941779785155,104.82925Q276.32621779785154,104.73913,276.1412177978516,104.67698Q257.00621779785155,98.25,237.85011779785157,98.25Q218.69401779785156,98.25,199.55912279785156,104.67698Q199.37408079785158,104.73913,199.20092779785156,104.82925Q199.02777779785157,104.91937,198.87070779785157,105.03528Q198.71363779785156,105.15118,198.57646779785156,105.29006Q198.43929779785157,105.42894,198.32533779785157,105.58742Q198.21138779785156,105.74591,198.12340779785157,105.92016Q198.03543779785156,106.09441,197.97557779785157,106.28021Q197.91571779785156,106.466,197.88541779785157,106.65884Q197.85511779785156,106.85167,197.85511779785156,107.04688ZM202.85511779785156,169.4486Q220.34371779785155,164.08100000000002,237.85011779785157,164.08100000000002Q255.35661779785156,164.08100000000002,272.84521779785155,169.4486L272.84521779785155,108.8577Q255.33801779785156,103.25,237.85011779785157,103.25Q220.36231779785157,103.25,202.85511779785156,108.8577L202.85511779785156,169.4486Z" fill-rule="evenodd" fill="#7B4F27" fill-opacity="1"/></g><g filter="url(#master_svg9_3_2317)"><path d="" fill="#FFFFFF" fill-opacity="0.009999999776482582"/><path d="M197.85511779785156,107.046875Q197.85511779785156,106.924058,197.86715779785158,106.801832Q197.87919779785156,106.679606,197.90315779785155,106.559149Q197.92711779785157,106.438692,197.96276779785157,106.321163Q197.99841779785157,106.203635,198.04541779785157,106.090167Q198.09241779785157,105.976695,198.15031779785156,105.868385Q198.20820779785157,105.760065,198.27644779785157,105.657945Q198.34467779785157,105.555835,198.42258779785155,105.460895Q198.50050779785155,105.365955,198.58734779785155,105.279105Q198.67419779785158,105.192265,198.76913779785156,105.114345Q198.86407779785156,105.036435,198.96618779785157,104.968205Q199.06830779785156,104.899965,199.17662779785155,104.842075Q199.28493779785157,104.784175,199.39840979785157,104.737175Q199.51187779785155,104.690175,199.62940579785158,104.654525Q199.74693479785157,104.618875,199.86739179785155,104.594915Q199.98784879785157,104.570955,200.11007479785155,104.558915Q200.23230079785156,104.546875,200.35511779785156,104.546875Q200.47793479785156,104.546875,200.60016079785157,104.558915Q200.72238679785156,104.570955,200.84284379785157,104.594915Q200.96330079785156,104.618875,201.08082979785155,104.654525Q201.19835779785157,104.690175,201.31182579785155,104.737175Q201.42529779785156,104.784175,201.53360779785157,104.842075Q201.64192779785157,104.899965,201.74404779785155,104.968205Q201.84615779785156,105.036435,201.94109779785157,105.114345Q202.03603779785155,105.192265,202.12288779785158,105.279105Q202.20972779785157,105.365955,202.28764779785158,105.460895Q202.36555779785155,105.555835,202.43378779785155,105.657945Q202.50202779785155,105.760065,202.55991779785157,105.868385Q202.61781779785156,105.976695,202.66481779785155,106.090167Q202.71181779785155,106.203635,202.74746779785156,106.321163Q202.78311779785156,106.438692,202.80707779785158,106.559149Q202.83103779785156,106.679606,202.84307779785155,106.801832Q202.85511779785156,106.924058,202.85511779785156,107.046875L202.85511779785156,218.672875Q202.85511779785156,218.795875,202.84307779785155,218.91787499999998Q202.83103779785156,219.040875,202.80707779785158,219.160875Q202.78311779785156,219.281875,202.74746779785156,219.398875Q202.71181779785155,219.516875,202.66481779785155,219.629875Q202.61781779785156,219.743875,202.55991779785157,219.851875Q202.50202779785155,219.959875,202.43378779785155,220.061875Q202.36555779785155,220.16387500000002,202.28764779785158,220.258875Q202.20972779785157,220.35387500000002,202.12288779785158,220.440875Q202.03603779785155,220.527875,201.94109779785157,220.605875Q201.84615779785156,220.683875,201.74404779785155,220.75187499999998Q201.64192779785157,220.819875,201.53360779785157,220.87787500000002Q201.42529779785156,220.935875,201.31182579785155,220.982875Q201.19835779785157,221.029875,201.08082979785155,221.065875Q200.96330079785156,221.100875,200.84284379785157,221.124875Q200.72238679785156,221.148875,200.60016079785157,221.160875Q200.47793479785156,221.172875,200.35511779785156,221.172875Q200.23230079785156,221.172875,200.11007479785155,221.160875Q199.98784879785157,221.148875,199.86739179785155,221.124875Q199.74693479785157,221.100875,199.62940579785158,221.065875Q199.51187779785155,221.029875,199.39840979785157,220.982875Q199.28493779785157,220.935875,199.17662779785155,220.87787500000002Q199.06830779785156,220.819875,198.96618779785157,220.75187499999998Q198.86407779785156,220.683875,198.76913779785156,220.605875Q198.67419779785158,220.527875,198.58734779785155,220.440875Q198.50050779785155,220.35387500000002,198.42258779785155,220.258875Q198.34467779785157,220.16387500000002,198.27644779785157,220.061875Q198.20820779785157,219.959875,198.15031779785156,219.851875Q198.09241779785157,219.743875,198.04541779785157,219.629875Q197.99841779785157,219.516875,197.96276779785157,219.398875Q197.92711779785157,219.281875,197.90315779785155,219.160875Q197.87919779785156,219.040875,197.86715779785158,218.91787499999998Q197.85511779785156,218.795875,197.85511779785156,218.672875L197.85511779785156,107.046875Z" fill-rule="evenodd" fill="#7B4F27" fill-opacity="1"/></g><g transform="matrix(0.9510565400123596,-0.30901700258255005,0.30901700258255005,0.9510565400123596,-65.98650099795805,42.72835993305989)"><path d="" fill="#FFFFFF" fill-opacity="0"/><path d="M311.076889831543,233.86503400390626Q310.566889831543,233.59266400390624,309.98788983154293,233.57236400390624L127.70498983154297,227.17689400390626Q127.36098983154297,227.16482400390626,127.02648983154296,227.24616400390624Q99.39488983154297,233.96611400390626,99.39488983154297,244.16605400390625Q99.39488983154297,250.26865400390625,109.25314983154297,255.10505400390625Q117.70768983154296,259.25275400390626,132.91578983154298,262.40855400390626Q147.95778983154298,265.5298540039063,167.42178983154298,267.23815400390623Q187.53098983154297,269.00305400390624,209.54088983154298,269.00305400390624Q231.55088983154297,269.00305400390624,251.66088983154296,267.23815400390623Q271.124889831543,265.5298540039063,286.16688983154296,262.40855400390626Q301.374889831543,259.25285400390624,309.82888983154294,255.10505400390625Q319.687889831543,250.26865400390625,319.687889831543,244.16605400390625Q319.687889831543,238.45798400390626,311.076889831543,233.86503400390626ZM309.223889831543,238.54861400390624L127.87498983154296,232.18593400390625Q116.18298983154297,235.05635400390625,109.94979983154298,238.49836400390626Q106.96855983154296,240.14465400390625,105.53312983154296,241.77155400390626Q104.39488983154297,243.06165400390626,104.39488983154297,244.16605400390625Q104.39488983154297,245.42465400390626,105.86192983154297,246.91235400390624Q107.69537983154297,248.77155400390626,111.45537983154297,250.61615400390625Q119.34248983154296,254.48555400390626,133.93168983154297,257.5128540039062Q148.68688983154297,260.57455400390626,167.85898983154297,262.25725400390627Q187.74998983154296,264.00305400390624,209.54088983154298,264.00305400390624Q231.33188983154298,264.00305400390624,251.22288983154297,262.25725400390627Q270.39588983154295,260.57465400390623,285.15088983154294,257.5128540039062Q299.739889831543,254.48555400390626,307.62688983154294,250.61615400390625Q311.38688983154293,248.77145400390626,313.220889831543,246.91235400390624Q314.687889831543,245.42465400390626,314.687889831543,244.16605400390625Q314.687889831543,243.01855400390625,313.460889831543,241.67315400390626Q312.0408898315429,240.11545400390625,309.223889831543,238.54861400390624Z" fill-rule="evenodd" fill="#7B4F27" fill-opacity="1"/></g><g><path d="M228.53814343261718,148.118875L228.53814343261718,144.438875L226.7461434326172,144.438875L226.7461434326172,139.254875L222.5541434326172,139.254875L222.5541434326172,144.438875L218.2981434326172,144.438875L224.6021434326172,129.558875L220.4101434326172,129.558875L214.1061434326172,144.438875L214.1061434326172,148.118875L222.5541434326172,148.118875L222.5541434326172,151.63887499999998L226.7461434326172,151.63887499999998L226.7461434326172,148.118875L228.53814343261718,148.118875ZM232.8741434326172,150.086875C233.9511434326172,151.356375,235.61014343261718,151.991375,237.8501434326172,151.99087500000002C240.0901434326172,151.99087500000002,241.7486434326172,151.350875,242.8261434326172,150.070875C243.90314343261718,148.79137500000002,244.44214343261717,146.89237500000002,244.44214343261717,144.374875L244.44214343261717,136.566875C244.44214343261717,134.134875,243.90314343261718,132.300375,242.8261434326172,131.062875C241.7486434326172,129.825875,240.0901434326172,129.206875,237.8501434326172,129.206875C235.6951434326172,129.206875,234.0581434326172,129.830875,232.93814343261718,131.07887499999998C231.81814343261718,132.326875,231.2581434326172,134.156375,231.2581434326172,136.566875L231.2581434326172,144.374875C231.2581434326172,146.913875,231.7966434326172,148.81787500000002,232.8741434326172,150.086875ZM239.75414343261718,147.366875C239.4231434326172,148.017875,238.7886434326172,148.342875,237.8501434326172,148.342875C236.9326434326172,148.342875,236.3086434326172,148.017875,235.97814343261717,147.366875C235.64714343261718,146.716375,235.4821434326172,145.601875,235.4821434326172,144.022875L235.4821434326172,137.174875C235.4821434326172,135.596375,235.6421434326172,134.486875,235.96214343261718,133.846875C236.28214343261718,133.206875,236.9111434326172,132.886875,237.8501434326172,132.886875C238.7886434326172,132.886875,239.4231434326172,133.206875,239.75414343261718,133.846875C240.08464343261718,134.486875,240.2501434326172,135.596375,240.2501434326172,137.174875L240.2501434326172,144.022875C240.2501434326172,145.601875,240.08464343261718,146.716375,239.75414343261718,147.366875ZM261.5941434326172,148.118875L261.5941434326172,144.438875L259.8021434326172,144.438875L259.8021434326172,139.254875L255.61014343261718,139.254875L255.61014343261718,144.438875L251.35414343261718,144.438875L257.6581434326172,129.558875L253.46614343261717,129.558875L247.1621434326172,144.438875L247.1621434326172,148.118875L255.61014343261718,148.118875L255.61014343261718,151.63887499999998L259.8021434326172,151.63887499999998L259.8021434326172,148.118875L261.5941434326172,148.118875Z" fill="#7B4F27" fill-opacity="1"/></g></g></g></svg>